<svg xmlns="http://www.w3.org/2000/svg" viewBox="-0.8 -1.6 17.6 21.6" fill="none" x="0px" y="0px"><g><path fill-rule="evenodd" clip-rule="evenodd" d="M16 8C16 12.4183 12.4183 16 8 16C3.58172 16 0 12.4183 0 8C0 3.58172 3.58172 0 8 0C12.4183 0 16 3.58172 16 8ZM14 8C14 11.3137 11.3137 14 8 14C4.68629 14 2 11.3137 2 8H5C5 9.65685 6.34315 11 8 11C9.65685 11 11 9.65685 11 8H14ZM8 9C8.55229 9 9 8.55229 9 8C9 7.44772 8.55229 7 8 7C7.44772 7 7 7.44772 7 8C7 8.55229 7.44772 9 8 9Z" fill="black"/></g><text x="0.0" y="18.8" font-size="0.8" font-weight="bold" font-family="Arbeit Regular, Helvetica, Arial-Unicode, Arial, Sans-serif" fill="#000000">Created by PixelBazaar</text><text x="0.0" y="19.6" font-size="0.8" font-weight="bold" font-family="Arbeit Regular, Helvetica, Arial-Unicode, Arial, Sans-serif" fill="#000000">from Noun Project</text></svg>